<svg width="20" height="20" viewBox="0 0 20 20" fill="none" xmlns="http://www.w3.org/2000/svg">
<path fill-rule="evenodd" clip-rule="evenodd" d="M15.734 9.94651C18.1474 9.59146 20 7.51207 20 5C20 2.23858 17.7614 0 15 0C12.4879 0 10.4085 1.85255 10.0535 4.266C10.0183 4.50556 10 4.75065 10 5C10 7.76142 12.2386 10 15 10C15.2493 10 15.4944 9.98175 15.734 9.94651ZM8 4C8.21182 4 8.42172 4.00823 8.62939 4.02439C8.6245 4.05464 8.61982 4.08496 8.61535 4.11535C8.56954 4.42677 8.54581 4.74539 8.54581 5.06954C8.54581 8.65939 11.456 11.5695 15.0458 11.5695C15.3647 11.5695 15.6782 11.5466 15.9848 11.5022C15.9949 11.6669 16 11.8328 16 12C16 16.4183 12.4183 20 8 20C3.58172 20 0 16.4183 0 12C0 7.58172 3.58172 4 8 4Z" fill="#25AEBE"/>
</svg>
