<svg width="58" height="58" viewBox="0 0 58 58" fill="none" xmlns="http://www.w3.org/2000/svg">
<g id="Group 10">
<circle id="Ellipse 3" cx="29" cy="29" r="29" fill="url(#paint0_linear_708_1646)"/>
<path id="Subtract" fill-rule="evenodd" clip-rule="evenodd" d="M28.25 22.3781C26.131 20.9223 23.1895 20.2593 20.9943 20.0113C19.8964 19.8872 19 20.804 19 21.9352V33.2C19 34.3311 19.8964 35.2483 20.9943 35.3723C23.1895 35.6204 26.131 36.2833 28.25 37.7391V22.3781ZM29.75 37.7391C31.869 36.2833 34.8105 35.6204 37.0057 35.3723C38.1036 35.2483 39 34.3311 39 33.2V21.9352C39 20.804 38.1036 19.8872 37.0057 20.0113C34.8105 20.2593 31.869 20.9223 29.75 22.3781V37.7391ZM21.2588 25.14C21.3222 24.7306 21.7054 24.4502 22.1148 24.5136C23.4175 24.7153 24.8847 25.0526 26.2705 25.5885C26.6568 25.7379 26.8489 26.1722 26.6995 26.5585C26.5501 26.9448 26.1158 27.1369 25.7295 26.9875C24.4708 26.5008 23.114 26.1862 21.8852 25.9959C21.4759 25.9325 21.1954 25.5493 21.2588 25.14ZM22.1148 28.5136C21.7054 28.4502 21.3222 28.7306 21.2588 29.14C21.1954 29.5493 21.4759 29.9325 21.8852 29.9959C22.5044 30.0918 23.1581 30.2196 23.8165 30.3857C24.2181 30.487 24.6259 30.2436 24.7272 29.8419C24.8285 29.4403 24.5851 29.0326 24.1835 28.9313C23.4745 28.7524 22.7745 28.6158 22.1148 28.5136Z" fill="#25AEBE"/>
</g>
<defs>
<linearGradient id="paint0_linear_708_1646" x1="51.475" y1="1.47898e-06" x2="29" y2="58" gradientUnits="userSpaceOnUse">
<stop stop-color="#C8F9FF" stop-opacity="0.47"/>
<stop offset="1" stop-color="#D3EDF0" stop-opacity="0.47"/>
</linearGradient>
</defs>
</svg>
