<svg width="20" height="18" viewBox="0 0 20 18" fill="none" xmlns="http://www.w3.org/2000/svg">
<path fill-rule="evenodd" clip-rule="evenodd" d="M9.25 2.37808C7.13095 0.922277 4.18953 0.259328 1.99433 0.0112717C0.896423 -0.112791 0 0.804023 0 1.93518V13.2C0 14.3311 0.896423 15.2483 1.99433 15.3723C4.18953 15.6204 7.13095 16.2833 9.25 17.7391V2.37808ZM10.75 17.7391C12.869 16.2833 15.8105 15.6204 18.0057 15.3723C19.1036 15.2483 20 14.3311 20 13.2V1.93518C20 0.804023 19.1036 -0.112791 18.0057 0.0112717C15.8105 0.259328 12.869 0.922278 10.75 2.37808V17.7391ZM2.25882 5.13996C2.32221 4.73063 2.70543 4.45019 3.11477 4.51358C4.41754 4.71534 5.88469 5.05257 7.27049 5.58846C7.65682 5.73786 7.8489 6.17215 7.6995 6.55849C7.55011 6.94482 7.11581 7.1369 6.72948 6.9875C5.47083 6.50078 4.11398 6.18621 2.8852 5.99591C2.47587 5.93252 2.19543 5.5493 2.25882 5.13996ZM3.11477 8.51358C2.70543 8.45019 2.32221 8.73063 2.25882 9.13996C2.19543 9.5493 2.47587 9.93252 2.8852 9.99591C3.50444 10.0918 4.15812 10.2196 4.81651 10.3857C5.21814 10.487 5.62587 10.2436 5.7272 9.84194C5.82853 9.44031 5.58509 9.03258 5.18346 8.93125C4.47445 8.75237 3.7745 8.61575 3.11477 8.51358Z" fill="#25AEBE"/>
</svg>
