<svg width="20" height="20" viewBox="0 0 20 20" fill="none" xmlns="http://www.w3.org/2000/svg">
<path id="Subtract" fill-rule="evenodd" clip-rule="evenodd" d="M17 15C18.6569 15 20 13.6569 20 12L20 3C20 1.34315 18.6569 0 17 0H3C1.34315 0 0 1.34315 0 3V12C0 13.6569 1.34314 15 3 15H4.52542L2.35687 18.6142C2.14376 18.9694 2.25893 19.4301 2.61412 19.6432C2.9693 19.8563 3.43 19.7412 3.64311 19.386L6.2747 15L9.24999 15V17.0001C9.24999 17.4143 9.58578 17.7501 9.99999 17.7501C10.4142 17.7501 10.75 17.4143 10.75 17.0001V15L13.7253 15L16.3569 19.386C16.57 19.7412 17.0307 19.8563 17.3859 19.6432C17.741 19.4301 17.8562 18.9694 17.6431 18.6142L15.4746 15H17ZM4.25 5C4.25 4.58579 4.58579 4.25 5 4.25H15C15.4142 4.25 15.75 4.58579 15.75 5C15.75 5.41421 15.4142 5.75 15 5.75H5C4.58579 5.75 4.25 5.41421 4.25 5ZM5 9.25C4.58579 9.25 4.25 9.58579 4.25 10C4.25 10.4142 4.58579 10.75 5 10.75H10C10.4142 10.75 10.75 10.4142 10.75 10C10.75 9.58579 10.4142 9.25 10 9.25H5Z" fill="#25AEBE"/>
</svg>
