<svg width="22" height="21" viewBox="0 0 22 21" fill="none" xmlns="http://www.w3.org/2000/svg">
<path fill-rule="evenodd" clip-rule="evenodd" d="M17.2025 11.0752L21.6556 15.3297C21.9678 15.6546 22.0775 16.112 21.9444 16.5338L21.126 19.2631C20.9962 19.6722 20.663 19.994 20.2354 20.1232L17.3108 20.9489C16.8448 21.0792 16.3413 20.956 15.999 20.6278L11.5338 16.3733C10.6169 15.5034 9.24438 15.2374 8.0436 15.6967C6.83913 16.1579 5.46212 15.8919 4.54131 15.0201L0.93071 11.5798C0.112437 10.7904 -0.195763 9.64203 0.124342 8.57524L1.49637 3.55239C1.79319 2.5065 2.64217 1.68451 3.73495 1.385L9.0305 0.112081C10.1427 -0.181571 11.3349 0.111158 12.1597 0.880417L15.7703 4.32073C16.7199 5.20821 17.006 6.55751 16.4924 7.72663C15.9996 8.87721 16.2795 10.1972 17.2025 11.0752ZM7.00856 10.2037L10.7395 6.64867C11.0951 6.313 11.0978 5.7662 10.7455 5.42736C10.3933 5.08852 9.81939 5.08595 9.46377 5.42163L5.73282 8.98808C5.38084 9.32388 5.38084 9.86786 5.73282 10.2037C6.08523 10.539 6.65615 10.539 7.00856 10.2037Z" fill="#25AEBE"/>
<path fill-rule="evenodd" clip-rule="evenodd" d="M17.2025 11.0752L21.6556 15.3297C21.9678 15.6546 22.0775 16.112 21.9444 16.5338L21.126 19.2631C20.9962 19.6722 20.663 19.994 20.2354 20.1232L17.3108 20.9489C16.8448 21.0792 16.3413 20.956 15.999 20.6278L11.5338 16.3733C10.6169 15.5034 9.24438 15.2374 8.0436 15.6967C6.83913 16.1579 5.46212 15.8919 4.54131 15.0201L0.93071 11.5798C0.112437 10.7904 -0.195763 9.64203 0.124342 8.57524L1.49637 3.55239C1.79319 2.5065 2.64217 1.68451 3.73495 1.385L9.0305 0.112081C10.1427 -0.181571 11.3349 0.111158 12.1597 0.880417L15.7703 4.32073C16.7199 5.20821 17.006 6.55751 16.4924 7.72663C15.9996 8.87721 16.2795 10.1972 17.2025 11.0752ZM7.00856 10.2037L10.7395 6.64867C11.0951 6.313 11.0978 5.7662 10.7455 5.42736C10.3933 5.08852 9.81939 5.08595 9.46377 5.42163L5.73282 8.98808C5.38084 9.32388 5.38084 9.86786 5.73282 10.2037C6.08523 10.539 6.65615 10.539 7.00856 10.2037Z" fill="#25AEBE"/>
</svg>
