<svg width="31" height="27" viewBox="0 0 31 27" fill="none" xmlns="http://www.w3.org/2000/svg">
<path d="M26.4721 21.375V19.5233C26.4721 18.6033 25.8445 17.7759 24.8873 17.4343L22.3231 16.5189C21.1057 16.0843 19.7182 16.5551 19.1318 17.6017L18.9087 18C18.9087 18 15.7572 17.4375 13.2361 15.1875C10.7149 12.9375 10.0846 10.125 10.0846 10.125L10.5309 9.92587C11.7037 9.40254 12.2312 8.16428 11.7442 7.07778L10.7186 4.78937C10.3357 3.93514 9.40863 3.375 8.37772 3.375H6.30289C4.9105 3.375 3.78174 4.38236 3.78174 5.625C3.78174 15.5661 12.8118 23.625 23.951 23.625C25.3434 23.625 26.4721 22.6176 26.4721 21.375Z" fill="#25AEBE"/>
</svg>
