<svg width="22" height="18" viewBox="0 0 22 18" fill="none" xmlns="http://www.w3.org/2000/svg">
<path d="M20.3497 0C19.4389 0 18.6997 0.754875 18.6997 1.6875V16.3125C18.6997 17.244 19.4389 18 20.3497 18C21.2605 18 21.9997 17.2451 21.9997 16.3125C21.9997 16.3125 21.981 2.502 21.9997 1.6875C22.0184 0.873 21.2605 0 20.3497 0ZM16.4997 2.25C12.0998 4.5 6.5999 4.5 6.5999 4.5V12.375V13.5V14.625C6.5999 16.4891 8.07718 18 9.89985 18C11.7225 18 13.1998 16.4891 13.1998 14.625V14.4844C14.302 14.7971 15.4328 15.2044 16.4997 15.75C16.4997 14.625 16.4997 3.375 16.4997 2.25ZM3.47155 4.5C1.53228 4.5 0 6.50925 0 9C0 11.4851 1.56196 13.5 3.50673 13.5H4.39993V4.5H3.47155ZM8.80866 13.6429C9.50715 13.7194 9.93943 13.7677 10.9976 13.9635L10.9998 14.625C10.9998 15.246 10.507 15.75 9.89985 15.75C9.29266 15.75 8.79986 15.246 8.79986 14.625L8.80866 13.6429Z" fill="#25AEBE"/>
</svg>
