<svg width="30" height="28" viewBox="0 0 30 28" fill="none" xmlns="http://www.w3.org/2000/svg">
<path fill-rule="evenodd" clip-rule="evenodd" d="M9.16293 2.3338H20.8367C25.0879 2.3338 27.4879 4.5843 27.5004 8.55213V19.4488C27.5004 23.4155 25.0879 25.6671 20.8367 25.6671H9.16293C4.91168 25.6671 2.50043 23.4155 2.50043 19.4488V8.55213C2.50043 4.5843 4.91168 2.3338 9.16293 2.3338ZM15.0618 20.8371C15.6005 20.8371 16.0493 20.4638 16.0993 19.9621V8.0738C16.1493 7.71213 15.963 7.3493 15.6255 7.15213C15.2743 6.9538 14.8493 6.9538 14.513 7.15213C14.1743 7.3493 13.988 7.71213 14.0243 8.0738V19.9621C14.088 20.4638 14.5368 20.8371 15.0618 20.8371ZM20.813 20.8371C21.338 20.8371 21.7868 20.4638 21.8505 19.9621V16.1355C21.8868 15.761 21.7005 15.4121 21.3618 15.2138C21.0255 15.0155 20.6005 15.0155 20.2505 15.2138C19.9118 15.4121 19.7255 15.761 19.7755 16.1355V19.9621C19.8255 20.4638 20.2743 20.8371 20.813 20.8371ZM10.2742 19.9621C10.2242 20.4638 9.77547 20.8371 9.23672 20.8371C8.69922 20.8371 8.24922 20.4638 8.20047 19.9621V11.9005C8.16297 11.5376 8.34922 11.1771 8.68797 10.9788C9.02422 10.7805 9.45047 10.7805 9.78797 10.9788C10.1242 11.1771 10.313 11.5376 10.2742 11.9005V19.9621Z" fill="#25AEBE"/>
</svg>
