<svg width="31" height="27" viewBox="0 0 31 27" fill="none" xmlns="http://www.w3.org/2000/svg">
<path fill-rule="evenodd" clip-rule="evenodd" d="M6.30289 2.25H23.951C25.3434 2.25 26.4721 3.25736 26.4721 4.5V21.5486C26.4721 23.107 24.7399 24.1935 23.097 23.6656L21.1283 23.0331C20.5131 22.8355 19.836 22.8588 19.2397 23.0983L16.1615 24.3345C15.5036 24.5987 14.7503 24.5987 14.0923 24.3345L11.0141 23.0983C10.4179 22.8588 9.74075 22.8355 9.12558 23.0331L7.15686 23.6656C5.51392 24.1935 3.78174 23.107 3.78174 21.5486V4.5C3.78174 3.25736 4.9105 2.25 6.30289 2.25ZM10.0846 7.03125C9.56247 7.03125 9.13919 7.40901 9.13919 7.875C9.13919 8.34099 9.56247 8.71875 10.0846 8.71875H15.1269C15.6491 8.71875 16.0724 8.34099 16.0724 7.875C16.0724 7.40901 15.6491 7.03125 15.1269 7.03125H10.0846ZM10.0846 11.5312C9.56247 11.5312 9.13919 11.909 9.13919 12.375C9.13919 12.841 9.56247 13.2188 10.0846 13.2188H20.1692C20.6914 13.2188 21.1147 12.841 21.1147 12.375C21.1147 11.909 20.6914 11.5312 20.1692 11.5312H10.0846ZM10.0846 16.0312C9.56247 16.0312 9.13919 16.409 9.13919 16.875C9.13919 17.341 9.56247 17.7188 10.0846 17.7188H20.1692C20.6914 17.7188 21.1147 17.341 21.1147 16.875C21.1147 16.409 20.6914 16.0312 20.1692 16.0312H10.0846Z" fill="#25AEBE"/>
</svg>
