<svg width="23" height="23" viewBox="0 0 23 23" fill="none" xmlns="http://www.w3.org/2000/svg">
<path fill-rule="evenodd" clip-rule="evenodd" d="M16.1 0H6.9C5.30549 0 3.8373 0.540858 2.66888 1.44912L8.91455 7.69479C9.65137 7.19319 10.5414 6.9 11.5 6.9C12.4586 6.9 13.3486 7.19319 14.0854 7.69479L20.3311 1.44912C19.1627 0.540858 17.6945 0 16.1 0ZM21.5509 2.66888L15.3052 8.91455C15.8068 9.65137 16.1 10.5414 16.1 11.5C16.1 12.4586 15.8068 13.3486 15.3052 14.0854L21.5509 20.3311C22.4591 19.1627 23 17.6945 23 16.1V6.9C23 5.30549 22.4591 3.8373 21.5509 2.66888ZM20.3311 21.5509L14.0854 15.3052C13.3486 15.8068 12.4586 16.1 11.5 16.1C10.5414 16.1 9.65137 15.8068 8.91455 15.3052L2.66888 21.5509C3.8373 22.4591 5.30549 23 6.9 23H16.1C17.6945 23 19.1627 22.4591 20.3311 21.5509ZM1.44912 20.3311L7.69479 14.0854C7.19319 13.3486 6.9 12.4586 6.9 11.5C6.9 10.5414 7.19319 9.65137 7.69479 8.91455L1.44912 2.66888C0.540858 3.8373 0 5.30549 0 6.9V16.1C0 17.6945 0.540858 19.1627 1.44912 20.3311Z" fill="#25AEBE"/>
</svg>
