<svg width="27" height="27" viewBox="0 0 27 27" fill="none" xmlns="http://www.w3.org/2000/svg">
<path d="M4.5 9H2.25V22.5C2.25 23.7409 3.25912 24.75 4.5 24.75H18V22.5H4.5V9Z" fill="#25AEBE"/>
<path d="M22.5 2.25H9C8.40326 2.25 7.83097 2.48705 7.40901 2.90901C6.98705 3.33097 6.75 3.90326 6.75 4.5V18C6.75 18.5967 6.98705 19.169 7.40901 19.591C7.83097 20.0129 8.40326 20.25 9 20.25H22.5C23.0967 20.25 23.669 20.0129 24.091 19.591C24.5129 19.169 24.75 18.5967 24.75 18V4.5C24.75 3.90326 24.5129 3.33097 24.091 2.90901C23.669 2.48705 23.0967 2.25 22.5 2.25ZM12.375 15.75V6.75L20.25 11.25L12.375 15.75Z" fill="#25AEBE"/>
</svg>
