<svg width="27" height="26" viewBox="0 0 27 26" fill="none" xmlns="http://www.w3.org/2000/svg">
<path fill-rule="evenodd" clip-rule="evenodd" d="M4.5 2.16666C3.25736 2.16666 2.25 3.13671 2.25 4.33333V8.66666C2.25 9.86328 3.25736 10.8333 4.5 10.8333H9C10.2426 10.8333 11.25 9.86328 11.25 8.66666V4.33333C11.25 3.13671 10.2426 2.16666 9 2.16666H4.5ZM20.25 10.8333C22.7353 10.8333 24.75 8.89323 24.75 6.5C24.75 4.10676 22.7353 2.16666 20.25 2.16666C17.7647 2.16666 15.75 4.10676 15.75 6.5C15.75 8.89323 17.7647 10.8333 20.25 10.8333ZM11.25 19.5C11.25 21.8932 9.23528 23.8333 6.75 23.8333C4.26472 23.8333 2.25 21.8932 2.25 19.5C2.25 17.1068 4.26472 15.1667 6.75 15.1667C9.23528 15.1667 11.25 17.1068 11.25 19.5ZM18 15.1667C16.7574 15.1667 15.75 16.1367 15.75 17.3333V21.6667C15.75 22.8633 16.7574 23.8333 18 23.8333H22.5C23.7426 23.8333 24.75 22.8633 24.75 21.6667V17.3333C24.75 16.1367 23.7426 15.1667 22.5 15.1667H18Z" fill="#25AEBE"/>
</svg>
