<svg width="28" height="28" viewBox="0 0 28 28" fill="none" xmlns="http://www.w3.org/2000/svg">
<path fill-rule="evenodd" clip-rule="evenodd" d="M19.5411 2.33333C19.5411 1.85008 19.1493 1.45833 18.6661 1.45833C18.1828 1.45833 17.7911 1.85008 17.7911 2.33333V4.08333H10.2078V2.33333C10.2078 1.85008 9.81601 1.45833 9.33276 1.45833C8.84951 1.45833 8.45776 1.85008 8.45776 2.33333V4.08333H8.16667C5.58934 4.08333 3.5 6.17267 3.5 8.75V21C3.5 23.5773 5.58934 25.6667 8.16667 25.6667H19.8333C22.4107 25.6667 24.5 23.5773 24.5 21V8.75C24.5 6.17267 22.4107 4.08333 19.8333 4.08333H19.5411V2.33333ZM9.33333 9.625C8.85008 9.625 8.45833 10.0168 8.45833 10.5C8.45833 10.9832 8.85008 11.375 9.33333 11.375H14C14.4832 11.375 14.875 10.9832 14.875 10.5C14.875 10.0168 14.4832 9.625 14 9.625H9.33333ZM8.45833 15.1667C8.45833 14.6834 8.85008 14.2917 9.33333 14.2917H18.6667C19.1499 14.2917 19.5417 14.6834 19.5417 15.1667C19.5417 15.6499 19.1499 16.0417 18.6667 16.0417H9.33333C8.85008 16.0417 8.45833 15.6499 8.45833 15.1667ZM9.33333 18.9583C8.85008 18.9583 8.45833 19.3501 8.45833 19.8333C8.45833 20.3166 8.85008 20.7083 9.33333 20.7083H18.6667C19.1499 20.7083 19.5417 20.3166 19.5417 19.8333C19.5417 19.3501 19.1499 18.9583 18.6667 18.9583H9.33333Z" fill="#25AEBE"/>
</svg>
