<svg width="26" height="26" viewBox="0 0 26 26" fill="none" xmlns="http://www.w3.org/2000/svg">
<path fill-rule="evenodd" clip-rule="evenodd" d="M22.1023 14.7118C22.4898 14.9176 22.7888 15.2426 22.9991 15.5676C23.4087 16.2393 23.3755 17.0626 22.977 17.7884L22.202 19.0884C21.7923 19.7818 21.0284 20.2151 20.2424 20.2151C19.8549 20.2151 19.4231 20.1068 19.0688 19.8901C18.781 19.7059 18.4488 19.6409 18.0946 19.6409C16.9985 19.6409 16.0796 20.5401 16.0464 21.6126C16.0464 22.8584 15.0278 23.8335 13.7546 23.8335H12.249C10.9647 23.8335 9.94615 22.8584 9.94615 21.6126C9.92401 20.5401 9.0051 19.6409 7.90905 19.6409C7.5437 19.6409 7.21157 19.7059 6.93479 19.8901C6.58051 20.1068 6.13766 20.2151 5.76124 20.2151C4.96411 20.2151 4.2002 19.7818 3.79056 19.0884L3.02665 17.7884C2.61702 17.0843 2.59487 16.2393 3.00451 15.5676C3.18165 15.2426 3.51378 14.9176 3.89021 14.7118C4.2002 14.5601 4.39948 14.3109 4.58769 14.0184C5.14125 13.0868 4.80912 11.8626 3.86806 11.3101C2.77201 10.6926 2.41774 9.31678 3.04879 8.24428L3.79056 6.96595C4.43269 5.89345 5.80552 5.51428 6.91264 6.14262C7.87584 6.66262 9.12689 6.31595 9.69152 5.39512C9.86866 5.09178 9.9683 4.76678 9.94615 4.44178C9.92401 4.01928 10.0458 3.61845 10.2561 3.29345C10.6658 2.62178 11.4076 2.18845 12.2158 2.16678H13.7768C14.5961 2.16678 15.3378 2.62178 15.7475 3.29345C15.9467 3.61845 16.0796 4.01928 16.0464 4.44178C16.0242 4.76678 16.1239 5.09178 16.301 5.39512C16.8657 6.31595 18.1167 6.66262 19.091 6.14262C20.187 5.51428 21.5709 5.89345 22.202 6.96595L22.9438 8.24428C23.5859 9.31678 23.2316 10.6926 22.1245 11.3101C21.1834 11.8626 20.8513 13.0868 21.4159 14.0184C21.5931 14.3109 21.7923 14.5601 22.1023 14.7118ZM9.86854 13.011C9.86854 14.7118 11.2746 16.066 13.0128 16.066C14.7509 16.066 16.1238 14.7118 16.1238 13.011C16.1238 11.3101 14.7509 9.94512 13.0128 9.94512C11.2746 9.94512 9.86854 11.3101 9.86854 13.011Z" fill="#25AEBE"/>
</svg>
