<svg width="33" height="33" viewBox="0 0 33 33" fill="none" xmlns="http://www.w3.org/2000/svg">
<path d="M27.5 4.125H11C9.48122 4.125 8.25 5.35622 8.25 6.875V11C8.25 11.7594 7.63439 12.375 6.875 12.375C4.59683 12.375 2.75 14.2218 2.75 16.5C2.75 18.7782 4.59683 20.625 6.875 20.625C7.63439 20.625 8.25 21.2406 8.25 22V26.125C8.25 27.6438 9.48122 28.875 11 28.875H13.75C14.5094 28.875 15.125 28.2594 15.125 27.5C15.125 25.2218 16.9718 23.375 19.25 23.375C21.5282 23.375 23.375 25.2218 23.375 27.5C23.375 28.2594 23.9906 28.875 24.75 28.875H27.5C29.0188 28.875 30.25 27.6438 30.25 26.125V22C30.25 21.2406 29.6344 20.625 28.875 20.625C26.5968 20.625 24.75 18.7782 24.75 16.5C24.75 14.2218 26.5968 12.375 28.875 12.375C29.6344 12.375 30.25 11.7594 30.25 11V6.875C30.25 5.35622 29.0188 4.125 27.5 4.125Z" fill="#25AEBE"/>
</svg>
