<svg width="24" height="25" viewBox="0 0 24 25" fill="none" xmlns="http://www.w3.org/2000/svg">
<path fill-rule="evenodd" clip-rule="evenodd" d="M2.75 12.5C2.75 7.39137 6.89137 3.25 12 3.25C17.0825 3.25 21.2077 7.34923 21.2497 12.4218C21.2531 12.836 21.5917 13.169 22.0059 13.1655C22.4201 13.1621 22.7531 12.8236 22.7496 12.4094C22.7009 6.51395 17.9068 1.75 12 1.75C6.06294 1.75 1.25 6.56294 1.25 12.5C1.25 18.4068 6.01395 23.2009 11.9094 23.2496C12.3236 23.2531 12.6621 22.9201 12.6655 22.5059C12.669 22.0917 12.336 21.7531 11.9218 21.7497C6.84923 21.7077 2.75 17.5825 2.75 12.5ZM12 8.25C9.65279 8.25 7.75 10.1528 7.75 12.5C7.75 14.2835 8.84882 15.8122 10.4092 16.4425C10.7933 16.5976 10.9789 17.0347 10.8237 17.4188C10.6686 17.8029 10.2315 17.9884 9.84739 17.8333C7.7395 16.9818 6.25 14.9157 6.25 12.5C6.25 9.32436 8.82436 6.75 12 6.75C14.4157 6.75 16.4818 8.2395 17.3333 10.3474C17.4884 10.7315 17.3029 11.1686 16.9188 11.3237C16.5347 11.4789 16.0976 11.2933 15.9425 10.9092C15.3122 9.34882 13.7835 8.25 12 8.25ZM14.6699 21.7614L12.0573 13.9235C11.7758 13.0792 12.5792 12.2758 13.4235 12.5573L21.2614 15.1699C22.2462 15.4982 22.2462 16.8911 21.2614 17.2193L18.3672 18.1841C18.0447 18.2916 17.7916 18.5447 17.6841 18.8672L16.7193 21.7614C16.3911 22.7462 14.9982 22.7462 14.6699 21.7614Z" fill="#25AEBE"/>
</svg>
