<svg width="16" height="21" viewBox="0 0 16 21" fill="none" xmlns="http://www.w3.org/2000/svg">
<path fill-rule="evenodd" clip-rule="evenodd" d="M4.75 5.25C4.75 3.45507 6.20507 2 8 2C9.79493 2 11.25 3.45507 11.25 5.25V6.5H4.75V5.25ZM3.25 6.5702V5.25C3.25 2.62665 5.37665 0.5 8 0.5C10.6234 0.5 12.75 2.62665 12.75 5.25V6.5702C14.6006 6.92125 16 8.54721 16 10.5V16.5C16 18.7091 14.2091 20.5 12 20.5H4C1.79086 20.5 0 18.7091 0 16.5V10.5C0 8.54721 1.39935 6.92125 3.25 6.5702ZM10 13.5C10 14.6046 9.10457 15.5 8 15.5C6.89543 15.5 6 14.6046 6 13.5C6 12.3954 6.89543 11.5 8 11.5C9.10457 11.5 10 12.3954 10 13.5Z" fill="#25AEBE"/>
</svg>
