<svg width="24" height="25" viewBox="0 0 24 25" fill="none" xmlns="http://www.w3.org/2000/svg">
<path fill-rule="evenodd" clip-rule="evenodd" d="M9.25018 5.25C9.25018 3.73122 10.4814 2.5 12.0002 2.5C13.519 2.5 14.7502 3.73122 14.7502 5.25V5.41565C17.1352 5.7059 19.3632 6.36798 21.3287 7.3258C21.7011 7.50725 21.8558 7.9562 21.6744 8.32855C21.4929 8.70091 21.044 8.85566 20.6716 8.6742C18.18 7.45998 15.2044 6.75 12.0002 6.75C8.79591 6.75 5.82036 7.45998 3.32872 8.6742C2.95637 8.85566 2.50742 8.70091 2.32597 8.32855C2.14451 7.9562 2.29926 7.50725 2.67162 7.3258C4.6371 6.36797 6.8652 5.7059 9.25018 5.41565V5.25ZM18.2656 18.783C18.1161 20.8763 16.3743 22.498 14.2757 22.498H9.72469C7.62613 22.498 5.88437 20.8763 5.73485 18.783L5.04663 9.1479C7.16395 8.40959 9.51894 7.99805 12.0002 7.99805C14.4815 7.99805 16.8365 8.40959 18.9538 9.1479L18.2656 18.783ZM10.7502 11.498C10.7502 11.0838 10.4144 10.748 10.0002 10.748C9.586 10.748 9.25021 11.0838 9.25021 11.498V17.498C9.25021 17.9123 9.586 18.248 10.0002 18.248C10.4144 18.248 10.7502 17.9123 10.7502 17.498V11.498ZM14.0002 10.748C14.4144 10.748 14.7502 11.0838 14.7502 11.498V17.498C14.7502 17.9123 14.4144 18.248 14.0002 18.248C13.586 18.248 13.2502 17.9123 13.2502 17.498V11.498C13.2502 11.0838 13.586 10.748 14.0002 10.748Z" fill="#25AEBE"/>
</svg>
