<svg width="24" height="25" viewBox="0 0 24 25" fill="none" xmlns="http://www.w3.org/2000/svg">
<path fill-rule="evenodd" clip-rule="evenodd" d="M10 3.5H11.1429C14.3782 3.5 17.0902 5.78735 17.8118 8.86434C17.9348 9.38907 18 9.93677 18 10.5C18 14.366 14.93 17.5 11.1429 17.5H6.96161H4.28571C3.02335 17.5 2 16.4553 2 15.1667V11.6667C2 7.15634 5.58172 3.5 10 3.5ZM11.4286 19.5H8.05814C9.29491 20.7372 10.9888 21.5 12.8571 21.5H17.0384H19.7143C20.9766 21.5 22 20.4553 22 19.1667V15.6667C22 13.5939 21.2435 11.7014 19.997 10.2614C19.999 10.3406 20 10.4202 20 10.5C20 15.4706 16.1624 19.5 11.4286 19.5Z" fill="#25AEBE"/>
</svg>
