<svg width="28" height="28" viewBox="0 0 28 28" fill="none" xmlns="http://www.w3.org/2000/svg">
<path d="M23.3333 16.3333L24.9595 14.7071C25.35 14.3166 25.35 13.6834 24.9595 13.2929L23.3333 11.6666" stroke="white" stroke-width="1.5" stroke-linecap="round" stroke-linejoin="round"/>
<path d="M24.4999 14H15.1666M6.99992 23.3334C4.42259 23.3334 2.33325 21.244 2.33325 18.6667V9.33335C2.33325 6.75603 4.42259 4.66669 6.99992 4.66669M6.99992 23.3334C9.57725 23.3334 11.6666 21.244 11.6666 18.6667V9.33335C11.6666 6.75603 9.57725 4.66669 6.99992 4.66669M6.99992 23.3334H16.3333C18.9106 23.3334 20.9999 21.244 20.9999 18.6667M6.99992 4.66669H16.3333C18.9106 4.66669 20.9999 6.75603 20.9999 9.33335" stroke="white" stroke-width="1.5" stroke-linecap="round"/>
</svg>
