<svg width="26" height="22" viewBox="0 0 26 22" fill="none" xmlns="http://www.w3.org/2000/svg">
<g id="fluent:eye-20-filled">
<g id="Group">
<path id="Vector" d="M4.71856 12.8236C5.59811 9.09555 9.27494 6.44663 13.4109 6.44663C17.5455 6.44663 21.2224 9.09555 22.1032 12.8236C22.1381 12.9716 22.2381 13.1012 22.3813 13.184C22.5245 13.2669 22.6991 13.2961 22.8667 13.2653C23.0343 13.2345 23.1812 13.1462 23.275 13.0198C23.3689 12.8934 23.402 12.7393 23.3671 12.5914C22.365 8.35108 18.1736 5.30829 13.4109 5.30829C8.64817 5.30829 4.45676 8.35108 3.4547 12.5914C3.41981 12.7393 3.45293 12.8934 3.54677 13.0198C3.64061 13.1462 3.78749 13.2345 3.95508 13.2653C4.12268 13.2961 4.29728 13.2669 4.44046 13.184C4.58364 13.1012 4.68368 12.9716 4.71856 12.8236ZM13.398 8.72331C14.5951 8.72331 15.7432 9.14308 16.5897 9.89026C17.4362 10.6374 17.9118 11.6508 17.9118 12.7075C17.9118 13.7642 17.4362 14.7776 16.5897 15.5248C15.7432 16.2719 14.5951 16.6917 13.398 16.6917C12.2009 16.6917 11.0527 16.2719 10.2062 15.5248C9.35974 14.7776 8.88417 13.7642 8.88417 12.7075C8.88417 11.6508 9.35974 10.6374 10.2062 9.89026C11.0527 9.14308 12.2009 8.72331 13.398 8.72331Z" fill="#6A707C"/>
</g>
</g>
</svg>
