<svg width="30" height="30" viewBox="0 0 30 30" fill="none" xmlns="http://www.w3.org/2000/svg">
<path d="M11.25 17.5L12.8661 15.8839C13.3543 15.3957 13.3543 14.6043 12.8661 14.1161L11.25 12.5M12.5 15L2.5 15M22.5 5C25.2614 5 27.5 7.23858 27.5 10V20C27.5 22.7614 25.2614 25 22.5 25M22.5 5C19.7386 5 17.5 7.23858 17.5 10V20C17.5 22.7614 19.7386 25 22.5 25M22.5 5H12.5C9.73858 5 7.5 7.23858 7.5 10M22.5 25H12.5C9.73858 25 7.5 22.7614 7.5 20" stroke="white" stroke-width="1.5" stroke-linecap="round"/>
</svg>
