<svg width="32" height="33" viewBox="0 0 32 33" fill="none" xmlns="http://www.w3.org/2000/svg">
<g id="icon/notification">
<g id="notification">
<path id="Vector" d="M18.4934 4.76667C18.0801 4.64667 17.6534 4.55334 17.2134 4.5C15.9334 4.34 14.7067 4.43334 13.5601 4.76667C13.9467 3.78 14.9067 3.08667 16.0267 3.08667C17.1467 3.08667 18.1067 3.78 18.4934 4.76667Z" stroke="white" stroke-width="1.5" stroke-miterlimit="10" stroke-linecap="round" stroke-linejoin="round"/>
<path id="Vector_2" d="M20.0266 25.9133C20.0266 28.1133 18.2266 29.9133 16.0266 29.9133C14.9333 29.9133 13.9199 29.46 13.1999 28.74C12.4799 28.02 12.0266 27.0067 12.0266 25.9133" stroke="white" stroke-width="1.5" stroke-miterlimit="10"/>
<path id="Vector_3" d="M16.0267 4.38C11.6133 4.38 8.02666 7.96667 8.02666 12.38V16.2333C8.02666 17.0467 7.67999 18.2867 7.26666 18.98L5.73333 21.5267C4.78666 23.1 5.44 24.8467 7.17333 25.4333C12.92 27.3533 19.12 27.3533 24.8667 25.4333C26.48 24.9 27.1867 22.9933 26.3067 21.5267L24.7733 18.98C24.3733 18.2867 24.0267 17.0467 24.0267 16.2333V12.38C24.0267 7.98001 20.4267 4.38 16.0267 4.38Z" stroke="white" stroke-width="1.5" stroke-miterlimit="10" stroke-linecap="round"/>
</g>
</g>
</svg>
