<svg width="84" height="84" viewBox="0 0 84 84" fill="none" xmlns="http://www.w3.org/2000/svg">
<circle cx="42" cy="42" r="42" fill="url(#paint0_linear_1_126)"/>
<path d="M47.0086 36.9913L56.1666 27.8333M27.8333 56.1667L36.9913 47.0087M47.0086 47.0086L56.1666 56.1667M27.8333 27.8333L36.9913 36.9913M34.9166 24.2917H49.0833C54.9513 24.2917 59.7083 29.0486 59.7083 34.9167V49.0833C59.7083 54.9513 54.9513 59.7083 49.0833 59.7083H34.9166C29.0486 59.7083 24.2916 54.9513 24.2916 49.0833V34.9167C24.2916 29.0486 29.0486 24.2917 34.9166 24.2917ZM49.0833 42C49.0833 45.912 45.912 49.0833 42 49.0833C38.0879 49.0833 34.9166 45.912 34.9166 42C34.9166 38.088 38.0879 34.9167 42 34.9167C45.912 34.9167 49.0833 38.088 49.0833 42Z" stroke="#25AEBE" stroke-width="3" stroke-linecap="round"/>
<defs>
<linearGradient id="paint0_linear_1_126" x1="74.55" y1="2.14197e-06" x2="42" y2="84" gradientUnits="userSpaceOnUse">
<stop stop-color="#C8F9FF" stop-opacity="0.47"/>
<stop offset="1" stop-color="#D3EDF0" stop-opacity="0.47"/>
</linearGradient>
</defs>
</svg>
