<svg width="37" height="35" viewBox="0 0 37 35" fill="none" xmlns="http://www.w3.org/2000/svg">
<path fill-rule="evenodd" clip-rule="evenodd" d="M4.16732 0.416687C2.1883 0.416687 0.583984 1.94638 0.583984 3.83335V10.6667C0.583984 12.5537 2.1883 14.0834 4.16732 14.0834H11.334C13.313 14.0834 14.9173 12.5537 14.9173 10.6667V3.83335C14.9173 1.94638 13.313 0.416687 11.334 0.416687H4.16732ZM29.2507 14.0834C33.2087 14.0834 36.4173 11.024 36.4173 7.25002C36.4173 3.47607 33.2087 0.416687 29.2507 0.416687C25.2926 0.416687 22.084 3.47607 22.084 7.25002C22.084 11.024 25.2926 14.0834 29.2507 14.0834ZM14.9173 27.75C14.9173 31.524 11.7087 34.5834 7.75065 34.5834C3.79261 34.5834 0.583984 31.524 0.583984 27.75C0.583984 23.9761 3.79261 20.9167 7.75065 20.9167C11.7087 20.9167 14.9173 23.9761 14.9173 27.75ZM25.6673 20.9167C23.6883 20.9167 22.084 22.4464 22.084 24.3334V31.1667C22.084 33.0537 23.6883 34.5834 25.6673 34.5834H32.834C34.813 34.5834 36.4173 33.0537 36.4173 31.1667V24.3334C36.4173 22.4464 34.813 20.9167 32.834 20.9167H25.6673Z" fill="#25AEBE"/>
</svg>
