<svg width="22" height="31" viewBox="0 0 22 31" fill="none" xmlns="http://www.w3.org/2000/svg">
<path id="Vector" d="M11 0.5C11.3242 0.5 11.635 0.631695 11.8642 0.866116C12.0935 1.10054 12.2222 1.41848 12.2222 1.75L12.2222 29.25C12.2222 29.5815 12.0935 29.8995 11.8642 30.1339C11.635 30.3683 11.3242 30.5 11 30.5C10.6758 30.5 10.365 30.3683 10.1358 30.1339C9.90655 29.8995 9.77778 29.5815 9.77778 29.25L9.77778 1.75C9.77778 1.41848 9.90655 1.10054 10.1358 0.866116C10.365 0.631695 10.6758 0.5 11 0.5ZM2.44444 29.25L2.44444 1.75C2.44444 1.41848 2.31567 1.10054 2.08646 0.866116C1.85725 0.631695 1.54638 0.5 1.22222 0.5C0.898069 0.5 0.587192 0.631695 0.357981 0.866116C0.12877 1.10054 0 1.41848 0 1.75L0 29.25C0 29.5815 0.12877 29.8995 0.357981 30.1339C0.587192 30.3683 0.898069 30.5 1.22222 30.5C1.54638 30.5 1.85725 30.3683 2.08646 30.1339C2.31567 29.8995 2.44444 29.5815 2.44444 29.25ZM19.5556 1.75V29.25C19.5556 29.5815 19.6843 29.8995 19.9135 30.1339C20.1427 30.3683 20.4536 30.5 20.7778 30.5C21.1019 30.5 21.4128 30.3683 21.642 30.1339C21.8712 29.8995 22 29.5815 22 29.25V1.75C22 1.41848 21.8712 1.10054 21.642 0.866116C21.4128 0.631695 21.1019 0.5 20.7778 0.5C20.4536 0.5 20.1427 0.631695 19.9135 0.866116C19.6843 1.10054 19.5556 1.41848 19.5556 1.75Z" fill="#25AEBE"/>
</svg>
