<svg width="30" height="23" viewBox="0 0 30 23" fill="none" xmlns="http://www.w3.org/2000/svg">
<path id="Vector" d="M0 11.5C0 11.1758 0.131695 10.865 0.366116 10.6358C0.600536 10.4065 0.918478 10.2778 1.25 10.2778L28.75 10.2778C29.0815 10.2778 29.3995 10.4065 29.6339 10.6358C29.8683 10.865 30 11.1758 30 11.5C30 11.8242 29.8683 12.135 29.6339 12.3642C29.3995 12.5935 29.0815 12.7222 28.75 12.7222L1.25 12.7222C0.918478 12.7222 0.600536 12.5935 0.366116 12.3642C0.131695 12.135 0 11.8242 0 11.5ZM28.75 20.0556L1.25 20.0556C0.918478 20.0556 0.600536 20.1843 0.366116 20.4135C0.131695 20.6427 0 20.9536 0 21.2778C0 21.6019 0.131695 21.9128 0.366116 22.142C0.600536 22.3712 0.918478 22.5 1.25 22.5L28.75 22.5C29.0815 22.5 29.3995 22.3712 29.6339 22.142C29.8683 21.9128 30 21.6019 30 21.2778C30 20.9536 29.8683 20.6427 29.6339 20.4135C29.3995 20.1843 29.0815 20.0556 28.75 20.0556ZM1.25 2.94444L28.75 2.94444C29.0815 2.94444 29.3995 2.81568 29.6339 2.58647C29.8683 2.35725 30 2.04638 30 1.72222C30 1.39807 29.8683 1.08719 29.6339 0.857981C29.3995 0.628769 29.0815 0.5 28.75 0.5L1.25 0.5C0.918478 0.5 0.600536 0.628769 0.366116 0.857981C0.131695 1.08719 0 1.39807 0 1.72222C0 2.04638 0.131695 2.35725 0.366116 2.58647C0.600536 2.81568 0.918478 2.94444 1.25 2.94444Z" fill="white"/>
</svg>
